<mxfile host="app.diagrams.net" modified="2024-05-10T09:20:09.725Z" agent="Mozilla/5.0 (Windows NT 10.0; Win64; x64) AppleWebKit/537.36 (KHTML, like Gecko) Chrome/113.0.0.0 Safari/537.36" version="24.1.0" etag="zMZ_-BpCvFXqPGaYtGX7" type="github">
  <diagram name="第 1 页" id="jae7St8DwQqMH0k6E51d">
    <mxGraphModel>
      <root>
        <mxCell id="0" />
        <mxCell id="1" parent="0" />
      </root>
    </mxGraphModel>
  </diagram>
</mxfile>
